<svg width="8" height="13" viewBox="0 0 8 13" fill="none" xmlns="http://www.w3.org/2000/svg">
<path d="M7.50586 6.28906C7.49902 5.92676 7.37598 5.63965 7.08203 5.35254L1.93457 0.321289C1.71582 0.109375 1.46289 0 1.14844 0C0.519531 0 0 0.512695 0 1.13477C0 1.44922 0.129883 1.73633 0.369141 1.97559L4.82617 6.28223L0.369141 10.6025C0.129883 10.835 0 11.1221 0 11.4434C0 12.0654 0.519531 12.5781 1.14844 12.5781C1.45605 12.5781 1.71582 12.4756 1.93457 12.2568L7.08203 7.22559C7.37598 6.93848 7.50586 6.64453 7.50586 6.28906Z" fill="white"/>
</svg>
