<svg width="40" height="40" viewBox="0 0 40 40" fill="none" xmlns="http://www.w3.org/2000/svg">
<path d="M5 19.6023C5 19.0961 5.21297 18.5899 5.56791 18.2524L14.3279 9.59058C14.7255 9.19686 15.1798 9 15.6341 9C16.7131 9 17.4514 9.74525 17.4514 10.7296C17.4514 11.2639 17.2101 11.6998 16.8693 12.0373L13.8736 15.0323L10.6649 17.9431L13.6464 17.7743H33.0975C34.2333 17.7743 35 18.5055 35 19.6023C35 20.685 34.2333 21.4162 33.0975 21.4162H13.6464L10.6649 21.2475L13.8736 24.1582L16.8693 27.1533C17.2101 27.4767 17.4514 27.9126 17.4514 28.461C17.4514 29.4453 16.7131 30.1765 15.6341 30.1765C15.1798 30.1765 14.7397 29.9937 14.3421 29.614L5.56791 20.9381C5.21297 20.6007 5 20.0944 5 19.6023Z" fill="white"/>
</svg>
