<svg width="56" height="56" viewBox="0 0 56 56" fill="none" xmlns="http://www.w3.org/2000/svg">
<path d="M28.6579 27.0863L17.2829 20.4026L15.9405 21.1947C15.8812 21.2309 15.8368 21.279 15.8074 21.3389C15.7779 21.3988 15.7632 21.4589 15.7632 21.5192V22.7288L28.6579 30.3127L41.5526 22.7288V21.5192C41.5526 21.4589 41.5379 21.3988 41.5084 21.3389C41.4789 21.279 41.4346 21.2309 41.3753 21.1947L40.0329 20.4026L28.6579 27.0863ZM26.9931 45.9379L14.6653 38.7248C14.1409 38.4177 13.7322 38.0073 13.4393 37.4936C13.1464 36.9796 13 36.4153 13 35.8008V21.5983C13 20.9838 13.1464 20.4195 13.4393 19.9055C13.7322 19.3918 14.1409 18.9814 14.6653 18.6743L26.9931 11.4611C27.5172 11.1537 28.0721 11 28.6579 11C29.2437 11 29.7986 11.1537 30.3227 11.4611L42.6505 18.6743C43.1749 18.9814 43.5836 19.3918 43.8764 19.9055C44.1693 20.4195 44.3158 20.9838 44.3158 21.5983V29.9813C43.6047 29.6717 42.8637 29.4378 42.0928 29.2796C41.3216 29.121 40.5275 29.0417 39.7105 29.0417C36.3026 29.0417 33.3959 30.2642 30.9905 32.7092C28.5853 35.1544 27.3827 38.1092 27.3827 41.5734C27.3827 42.428 27.4618 43.2527 27.6199 44.0476C27.7783 44.8422 28.0156 45.6066 28.3318 46.341C28.0933 46.3148 27.8626 46.2753 27.6397 46.2226C27.4165 46.1695 27.2009 46.0746 26.9931 45.9379ZM39.7105 50C37.4104 50 35.4537 49.1801 33.8407 47.5404C32.2276 45.9006 31.4211 43.9117 31.4211 41.5734C31.4211 39.2352 32.2276 37.2462 33.8407 35.6065C35.4537 33.9667 37.4104 33.1469 39.7105 33.1469C42.0107 33.1469 43.9673 33.9667 45.5804 35.6065C47.1935 37.2462 48 39.2352 48 41.5734C48 43.9117 47.1935 45.9006 45.5804 47.5404C43.9673 49.1801 42.0107 50 39.7105 50ZM40.5252 41.2888V36.1177H38.8959V41.9657L42.75 45.8841L43.8976 44.717L40.5252 41.2888Z" fill="#4A3AFF"/>
</svg>
