<svg width="56" height="56" viewBox="0 0 56 56" fill="none" xmlns="http://www.w3.org/2000/svg">
<path d="M21 27.5263H35V24.6842H21V27.5263ZM21 19.9474H35V17.1053H21V19.9474ZM41.8707 43.5477L34.9029 34.3545C34.4101 33.6891 33.8106 33.1742 33.1044 32.8098C32.3985 32.4454 31.6304 32.2632 30.8 32.2632H14V13.4252C14 12.4681 14.3267 11.6579 14.98 10.9947C15.6333 10.3316 16.4315 10 17.3745 10H38.6255C39.5685 10 40.3667 10.3316 41.02 10.9947C41.6733 11.6579 42 12.4681 42 13.4252V42.5748C42 42.745 41.9893 42.9102 41.9678 43.0703C41.946 43.2307 41.9137 43.3898 41.8707 43.5477ZM17.3745 46C16.4315 46 15.6333 45.6684 14.98 45.0053C14.3267 44.3421 14 43.5319 14 42.5748V35.1053H30.8C31.183 35.1053 31.5366 35.1915 31.8607 35.3639C32.1849 35.5363 32.4643 35.7793 32.6989 36.0929L39.9107 45.6755C39.7194 45.7873 39.5142 45.8693 39.2952 45.9214C39.0762 45.9738 38.853 46 38.6255 46H17.3745Z" fill="black"/>
</svg>
