<svg width="31" height="32" viewBox="0 0 31 32" fill="none" xmlns="http://www.w3.org/2000/svg">
<path d="M15.5 23.8296L6.67688 15.0064L8.85515 12.7652L13.95 17.86V0.5H17.05V17.86L22.1448 12.7652L24.3231 15.0064L15.5 23.8296ZM3.73602 31.5C2.69201 31.5 1.80833 31.1383 1.085 30.415C0.361667 29.6917 0 28.808 0 27.764V22.1602H3.1V27.764C3.1 27.9231 3.16631 28.0688 3.29892 28.2011C3.43118 28.3337 3.57688 28.4 3.73602 28.4H27.264C27.4231 28.4 27.5688 28.3337 27.7011 28.2011C27.8337 28.0688 27.9 27.9231 27.9 27.764V22.1602H31V27.764C31 28.808 30.6383 29.6917 29.915 30.415C29.1917 31.1383 28.308 31.5 27.264 31.5H3.73602Z" fill="#202020"/>
</svg>
