<svg width="56" height="56" viewBox="0 0 56 56" fill="none" xmlns="http://www.w3.org/2000/svg">
<path d="M12.6155 43C11.6052 43 10.75 42.65 10.05 41.95C9.35 41.25 9 40.3948 9 39.3845V29.5H19.0575L22.6425 36.669C22.7705 36.946 22.9595 37.1538 23.2095 37.2925C23.4595 37.4308 23.723 37.5 24 37.5C24.277 37.5 24.5405 37.4308 24.7905 37.2925C25.0405 37.1538 25.2295 36.946 25.3575 36.669L32 23.3845L34.6425 28.669C34.7705 28.946 34.9595 29.1538 35.2095 29.2925C35.4595 29.4308 35.723 29.5 36 29.5H47V39.3845C47 40.3948 46.65 41.25 45.95 41.95C45.25 42.65 44.3948 43 43.3845 43H12.6155ZM9 26.5V16.6155C9 15.6052 9.35 14.75 10.05 14.05C10.75 13.35 11.6052 13 12.6155 13H43.3845C44.3948 13 45.25 13.35 45.95 14.05C46.65 14.75 47 15.6052 47 16.6155V26.5H36.9425L33.3575 19.331C33.2295 19.0667 33.0437 18.8788 32.8 18.7675C32.5563 18.6558 32.2897 18.6 32 18.6C31.723 18.6 31.4595 18.6558 31.2095 18.7675C30.9595 18.8788 30.7705 19.0667 30.6425 19.331L24 32.6155L21.3575 27.331C21.2295 27.054 21.0405 26.8462 20.7905 26.7075C20.5405 26.5692 20.277 26.5 20 26.5H9Z" fill="#4A3AFF"/>
</svg>
