<svg width="56" height="56" viewBox="0 0 56 56" fill="none" xmlns="http://www.w3.org/2000/svg">
<path d="M21.4617 30.6837H34.5383V30.0468C34.5383 28.9239 33.9309 28.0076 32.7162 27.298C31.5014 26.5883 29.9294 26.2335 28 26.2335C26.0706 26.2335 24.4986 26.5883 23.2838 27.298C22.0691 28.0076 21.4617 28.9239 21.4617 30.0468V30.6837ZM28 23.9056C28.8694 23.9056 29.6087 23.6027 30.2181 22.9968C30.8271 22.3907 31.1316 21.6553 31.1316 20.7904C31.1316 19.9256 30.8271 19.1901 30.2181 18.584C29.6087 17.9782 28.8694 17.6753 28 17.6753C27.1306 17.6753 26.3913 17.9782 25.7819 18.584C25.1729 19.1901 24.8684 19.9256 24.8684 20.7904C24.8684 21.6553 25.1729 22.3907 25.7819 22.9968C26.3913 23.6027 27.1306 23.9056 28 23.9056ZM11 44V14.2179C11 13.3187 11.3132 12.5576 11.9395 11.9345C12.5658 11.3115 13.3309 11 14.2349 11H41.7651C42.6691 11 43.4342 11.3115 44.0605 11.9345C44.6868 12.5576 45 13.3187 45 14.2179V34.4833C45 35.3825 44.6868 36.1436 44.0605 36.7666C43.4342 37.3897 42.6691 37.7012 41.7651 37.7012H17.3321L11 44Z" fill="black"/>
</svg>
