<svg width="608" height="719" viewBox="0 0 608 719" fill="none" xmlns="http://www.w3.org/2000/svg">
<path d="M288.674 718.259C448.105 718.259 577.348 710.76 577.348 701.51C577.348 692.26 448.105 684.761 288.674 684.761C129.244 684.761 0 692.26 0 701.51C0 710.76 129.244 718.259 288.674 718.259Z" fill="#F5F5F5"/>
<path d="M470.276 561.913C457.576 561.917 445.161 558.155 434.6 551.103C424.039 544.05 415.807 534.024 410.945 522.293C406.082 510.561 404.808 497.651 407.283 485.196C409.758 472.74 415.871 461.298 424.849 452.317C433.828 443.336 445.268 437.219 457.723 434.74C470.178 432.261 483.088 433.531 494.821 438.39C506.554 443.249 516.582 451.478 523.638 462.037C530.694 472.596 534.46 485.01 534.46 497.709C534.444 514.729 527.677 531.047 515.644 543.084C503.612 555.12 487.295 561.892 470.276 561.913ZM470.276 435.087C457.885 435.087 445.773 438.761 435.471 445.645C425.169 452.529 417.14 462.314 412.4 473.761C407.659 485.209 406.42 497.805 408.838 509.957C411.257 522.109 417.225 533.271 425.988 542.031C434.751 550.791 445.914 556.756 458.067 559.17C470.22 561.585 482.816 560.342 494.262 555.598C505.708 550.853 515.49 542.821 522.371 532.517C529.252 522.213 532.922 510.099 532.918 497.709C532.902 481.102 526.297 465.18 514.552 453.439C502.807 441.698 486.883 435.097 470.276 435.087Z" fill="#7B71F7"/>
<path d="M40.6465 18.2902L39.2852 16.8287C48.5526 8.06805 60.3121 2.40169 72.9388 0.612549L73.2191 2.61455C60.9994 4.33789 49.6171 9.81565 40.6465 18.2902Z" fill="#776CFF"/>
<path d="M25.8316 40.172L23.9697 39.4513C25.9907 34.3512 28.6838 29.5439 31.9777 25.157L33.5793 26.3582C30.403 30.6036 27.7981 35.248 25.8316 40.172Z" fill="#776CFF"/>
<path d="M81.6873 116.869C112.027 116.869 136.622 92.2736 136.622 61.9339C136.622 31.5942 112.027 6.99902 81.6873 6.99902C51.3476 6.99902 26.7524 31.5942 26.7524 61.9339C26.7524 92.2736 51.3476 116.869 81.6873 116.869Z" fill="#776CFF"/>
<path d="M114.5 37.1892C112.384 34.9927 109.852 33.2401 107.051 32.0339C104.25 30.8277 101.236 30.192 98.1868 30.1641C95.1372 30.1361 92.1127 30.7164 89.29 31.8711C86.4673 33.0257 83.9031 34.7316 81.7474 36.8889C79.5935 34.7322 77.031 33.0267 74.21 31.8723C71.3889 30.7179 68.366 30.1377 65.318 30.1657C62.2701 30.1936 59.2583 30.8292 56.4589 32.0352C53.6595 33.2412 51.1288 34.9933 49.0147 37.1892C44.8718 41.6706 42.6398 47.591 42.793 53.6921C42.9463 59.7932 45.4728 65.5941 49.8355 69.8618L75.8615 95.8878C76.6423 96.6687 77.5693 97.2881 78.5896 97.7107C79.6098 98.1333 80.7032 98.3509 81.8075 98.3509C82.9118 98.3509 84.0052 98.1333 85.0255 97.7107C86.0457 97.2881 86.9726 96.6687 87.7534 95.8878L113.779 69.8618C118.128 65.5808 120.637 59.7727 120.771 53.6718C120.906 47.5708 118.656 41.6578 114.5 37.1892Z" fill="white"/>
<path d="M81.6875 85.9378C81.284 85.924 80.8941 85.7885 80.569 85.5491C80.2438 85.3097 79.9987 84.9777 79.8657 84.5965L68.2741 50.7026L63.4293 64.8767C63.2916 65.2706 63.0342 65.6117 62.6932 65.8522C62.3522 66.0927 61.9446 66.2206 61.5273 66.2181H42.128C41.597 66.2181 41.0878 66.0072 40.7123 65.6317C40.3369 65.2563 40.126 64.7471 40.126 64.2161C40.126 63.6851 40.3369 63.1759 40.7123 62.8005C41.0878 62.425 41.597 62.2141 42.128 62.2141H60.146L66.4323 43.8557C66.5684 43.4624 66.8238 43.1212 67.1629 42.8798C67.502 42.6383 67.9079 42.5085 68.3241 42.5085C68.7404 42.5085 69.1463 42.6383 69.4854 42.8798C69.8245 43.1212 70.0799 43.4624 70.216 43.8557L82.0078 78.3502L93.4593 51.3833C93.604 51.0395 93.8419 50.7431 94.1461 50.5273C94.4503 50.3115 94.8087 50.185 95.181 50.162C95.5559 50.1405 95.9292 50.2248 96.2584 50.4054C96.5876 50.5859 96.8595 50.8554 97.0428 51.1831L103.089 62.1941H121.327C121.858 62.1941 122.367 62.405 122.743 62.7804C123.118 63.1559 123.329 63.6651 123.329 64.1961C123.329 64.727 123.118 65.2363 122.743 65.6117C122.367 65.9872 121.858 66.1981 121.327 66.1981H101.928C101.57 66.201 101.217 66.1079 100.907 65.9283C100.597 65.7487 100.341 65.4893 100.166 65.177L95.4212 56.6886L83.5293 84.7166C83.3761 85.0784 83.1197 85.3872 82.7922 85.6043C82.4647 85.8215 82.0805 85.9375 81.6875 85.9378Z" fill="#776CFF"/>
<path d="M386.492 631.162H177.543C174.138 631.2 170.763 630.529 167.632 629.192C164.5 627.855 161.682 625.881 159.354 623.395C157.027 620.91 155.242 617.968 154.114 614.755C152.985 611.543 152.537 608.131 152.798 604.736L186.572 104.236C187.162 97.088 190.388 90.4147 195.623 85.5125C200.859 80.6102 207.729 77.8291 214.9 77.7094H423.889C427.303 77.6704 430.687 78.3439 433.826 79.6871C436.965 81.0303 439.789 83.0135 442.118 85.5099C444.446 88.0064 446.229 90.9613 447.351 94.1856C448.473 97.41 448.91 100.833 448.634 104.236L414.8 604.736C414.191 611.864 410.959 618.513 405.73 623.395C400.5 628.277 393.645 631.044 386.492 631.162Z" fill="#263238"/>
<path d="M432.818 281.533H427.553C426.6 281.545 425.655 281.357 424.778 280.982C423.901 280.607 423.113 280.053 422.462 279.356C421.812 278.659 421.315 277.833 421.002 276.933C420.689 276.032 420.568 275.076 420.646 274.126L427.113 178.45C427.263 176.449 428.159 174.578 429.624 173.206C431.088 171.834 433.014 171.062 435.021 171.043H440.286C441.239 171.031 442.185 171.219 443.061 171.594C443.938 171.969 444.726 172.522 445.377 173.22C446.027 173.917 446.524 174.743 446.837 175.643C447.15 176.544 447.271 177.5 447.193 178.45L440.726 274.126C440.576 276.127 439.68 277.998 438.215 279.37C436.751 280.742 434.825 281.514 432.818 281.533Z" fill="#263238"/>
<path d="M183.529 217.709H178.284C177.508 217.72 176.738 217.569 176.023 217.266C175.309 216.963 174.665 216.515 174.132 215.951C173.599 215.386 173.19 214.717 172.929 213.986C172.669 213.255 172.563 212.478 172.618 211.703L174.961 177.149C175.109 175.527 175.85 174.016 177.044 172.908C178.238 171.799 179.798 171.171 181.427 171.143H186.692C187.466 171.138 188.232 171.293 188.943 171.598C189.654 171.903 190.294 172.352 190.824 172.915C191.354 173.479 191.762 174.146 192.023 174.874C192.283 175.603 192.39 176.377 192.338 177.149L189.996 211.703C189.852 213.327 189.112 214.84 187.917 215.95C186.723 217.059 185.159 217.686 183.529 217.709Z" fill="#776CFF"/>
<path d="M179.365 279.411H174.1C173.325 279.418 172.558 279.265 171.846 278.961C171.133 278.657 170.492 278.209 169.961 277.645C169.431 277.081 169.023 276.412 168.764 275.683C168.504 274.953 168.399 274.177 168.454 273.405L170.797 238.85C170.944 237.228 171.686 235.718 172.88 234.609C174.073 233.501 175.634 232.872 177.263 232.844H182.568C183.342 232.84 184.108 232.995 184.819 233.3C185.53 233.605 186.17 234.053 186.7 234.617C187.23 235.18 187.638 235.847 187.898 236.576C188.159 237.304 188.266 238.079 188.214 238.85L185.872 273.405C185.727 275.035 184.981 276.554 183.778 277.664C182.575 278.775 181.002 279.397 179.365 279.411Z" fill="#776CFF"/>
<path d="M382.068 631.162H173.119C169.714 631.2 166.339 630.529 163.207 629.192C160.076 627.855 157.257 625.881 154.93 623.396C152.603 620.91 150.818 617.968 149.689 614.755C148.561 611.543 148.113 608.131 148.374 604.736L182.168 104.236C182.779 97.0856 186.027 90.4179 191.281 85.5299C196.536 80.6418 203.42 77.8829 210.596 77.7896H419.465C422.871 77.7516 426.249 78.4231 429.381 79.7614C432.514 81.0997 435.334 83.0756 437.662 85.5632C439.989 88.0508 441.773 90.9957 442.901 94.2105C444.028 97.4253 444.474 100.84 444.21 104.236L410.396 604.736C409.787 611.868 406.552 618.519 401.318 623.401C396.084 628.284 389.224 631.05 382.068 631.162Z" fill="#776CFF"/>
<path opacity="0.3" d="M150.576 599.13L183.569 110.722H441.947L408.954 599.13H150.576Z" fill="white"/>
<path opacity="0.1" d="M252.578 599.13L344.79 110.722H402.668L310.456 599.13H252.578Z" fill="white"/>
<path opacity="0.1" d="M208.854 599.13L301.067 110.722H330.396L238.184 599.13H208.854Z" fill="white"/>
<path d="M288.955 90.0617H339.345C339.766 90.0545 340.183 90.1358 340.57 90.3002C340.957 90.4646 341.306 90.7086 341.593 91.0162C341.88 91.3239 342.099 91.6884 342.236 92.0861C342.373 92.4838 342.425 92.9059 342.388 93.325C342.319 94.2071 341.924 95.0317 341.28 95.6386C340.636 96.2455 339.789 96.5911 338.905 96.6083H288.514C288.093 96.6126 287.675 96.5288 287.288 96.3621C286.9 96.1954 286.552 95.9495 286.266 95.6404C285.979 95.3312 285.761 94.9654 285.624 94.5667C285.487 94.1679 285.435 93.745 285.471 93.325C285.541 92.4449 285.937 91.6225 286.581 91.0189C287.225 90.4153 288.072 90.0739 288.955 90.0617Z" fill="white"/>
<path d="M278.464 679.31L260.807 680.992L254.44 640.251L272.098 638.55L278.464 679.31Z" fill="#FFB573"/>
<path d="M258.784 672.364L277.283 666.618C277.602 666.507 277.951 666.524 278.257 666.666C278.564 666.808 278.803 667.064 278.924 667.379L284.93 682.053C285.08 682.447 285.146 682.867 285.125 683.287C285.103 683.707 284.995 684.118 284.807 684.494C284.619 684.87 284.355 685.204 284.032 685.473C283.708 685.742 283.333 685.941 282.928 686.057C276.242 688.059 269.875 688.52 261.807 692.063C252.378 696.067 248.434 701.433 238.284 701.433C231.017 701.433 229.375 694.766 232.458 693.845C246.472 689.601 244.63 686.117 254.8 675.166C255.858 673.897 257.232 672.93 258.784 672.364Z" fill="#263238"/>
<path opacity="0.2" d="M254.44 640.251L257.723 661.272L275.401 659.571L272.118 638.55L254.44 640.251Z" fill="black"/>
<path d="M267.213 125.457C244.05 122.734 221.007 124.556 197.884 129.041C194.03 129.789 190.515 131.744 187.848 134.624C185.181 137.503 183.5 141.158 183.049 145.057C180.546 167.199 177.683 216.828 188.855 290.862L283.509 282.854C283.689 269.421 274.14 208.22 282.028 144.716C282.35 142.475 282.221 140.191 281.647 138C281.073 135.809 280.065 133.756 278.684 131.961C277.303 130.165 275.577 128.665 273.607 127.548C271.636 126.431 269.462 125.72 267.213 125.457Z" fill="white"/>
<path d="M212.098 144.436L215.481 151.203C215.639 151.544 215.89 151.834 216.205 152.04C216.52 152.245 216.887 152.357 217.263 152.364L220.926 152.564C221.58 152.593 222.224 152.395 222.748 152.004L229.055 147.299L221.267 141.633L212.098 144.436Z" fill="#263238"/>
<path d="M221.047 150.622C219.711 150.004 218.199 149.883 216.782 150.282C213.799 160.793 210.536 190.963 210.196 204.336C219.245 230.702 222.208 233.365 222.208 233.365L226.792 201.633C226.792 201.633 221.647 169.181 221.047 150.622Z" fill="#263238"/>
<path d="M247.173 79.8115C245.011 92.8646 243.169 116.708 252.538 125.137C245.671 132.344 236.682 140.692 221.267 141.633C205.852 142.574 208.234 131.904 212.138 126.198C226.532 122.354 225.832 111.623 223.009 101.593L247.173 79.8115Z" fill="#FFB573"/>
<path d="M256.462 123.996C255.371 123.525 254.238 123.156 253.079 122.895C252.795 122.82 252.495 122.84 252.223 122.952C251.952 123.064 251.725 123.262 251.577 123.515C250.096 126.038 245.571 137.309 221.267 141.633C225.271 143.996 230.576 151.323 232.859 154.847C240.146 151.063 259.105 139.752 257.303 125.117C257.266 124.875 257.17 124.646 257.024 124.451C256.877 124.255 256.684 124.099 256.462 123.996Z" fill="#F5F5F5"/>
<path d="M212.278 126.798C212.329 126.571 212.323 126.334 212.259 126.109C212.196 125.884 212.077 125.679 211.914 125.512C211.751 125.345 211.548 125.221 211.325 125.152C211.102 125.083 210.866 125.071 210.637 125.117C209.795 125.28 208.966 125.501 208.154 125.777C207.967 125.851 207.791 125.952 207.634 126.078C205.772 127.799 195.622 142.454 205.131 154.306C207.133 151.083 214.04 143.775 221.267 141.633C214.42 138.55 211.057 132.804 212.278 126.798Z" fill="#F5F5F5"/>
<path opacity="0.2" d="M237.323 88.7004L223.029 101.593C223.718 103.922 224.2 106.307 224.47 108.72C229.996 107.779 237.423 101.513 237.824 95.7074C238.094 93.361 237.924 90.9846 237.323 88.7004Z" fill="black"/>
<path d="M218.224 40.3522C205.892 45.177 205.091 55.3071 206.212 66.3782C207.333 77.4492 219.385 70.1219 222.068 63.195C224.751 56.2681 235.301 33.6655 218.224 40.3522Z" fill="#263238"/>
<path d="M257.563 62.4342C254.14 79.8716 252.999 90.222 243.029 98.25C227.994 110.262 207.633 99.8916 205.832 81.9137C204.21 65.7175 210.076 39.8717 228.034 34.8266C231.95 33.6736 236.099 33.5623 240.072 34.5039C244.044 35.4454 247.702 37.4071 250.685 40.1952C253.667 42.9833 255.87 46.5013 257.076 50.4015C258.283 54.3018 258.451 58.4493 257.563 62.4342Z" fill="#FFB573"/>
<path d="M256.843 76.8686C242.168 77.6494 245.271 69.3211 247.934 64.5363C250.596 59.7515 245.171 51.8436 248.714 47.7395C242.388 50.2621 235.721 48.18 227.253 42.2941C220.686 37.7095 212.458 56.0278 204.45 46.8386C196.883 38.17 203.91 25.0969 222.088 22.9948C240.266 20.8927 243.569 33.7456 255.501 32.6044C267.433 31.4633 263.289 41.2931 260.947 43.2951C270.957 43.9558 276.422 53.5253 256.843 76.8686Z" fill="#263238"/>
<path d="M258.644 44.5164C260.94 43.2571 262.858 41.4072 264.199 39.158C265.54 36.9088 266.256 34.3422 266.272 31.7236C270.236 38.6706 269.815 46.5585 258.644 44.5164Z" fill="#263238"/>
<path d="M220.606 81.0529C222.202 81.329 223.836 81.2798 225.412 80.9082C226.988 80.5366 228.472 79.8504 229.776 78.8907C229.815 78.8533 229.846 78.8083 229.868 78.7584C229.889 78.7085 229.9 78.6548 229.9 78.6004C229.9 78.5461 229.889 78.4924 229.868 78.4425C229.846 78.3926 229.815 78.3476 229.776 78.3102C229.697 78.2355 229.593 78.1938 229.485 78.1938C229.377 78.1938 229.273 78.2355 229.195 78.3102C227.735 79.3451 226.055 80.0267 224.286 80.3011C222.518 80.5756 220.71 80.4355 219.005 79.8917C218.896 79.8646 218.781 79.8782 218.682 79.9298C218.582 79.9814 218.505 80.0675 218.464 80.172C218.433 80.2782 218.445 80.3924 218.498 80.4899C218.55 80.5873 218.639 80.6601 218.745 80.6925C219.353 80.8681 219.976 80.9887 220.606 81.0529Z" fill="#263238"/>
<path d="M261.107 82.214C258.365 85.7466 254.347 88.0616 249.915 88.6604C244.09 89.4212 242.148 83.9958 244.59 78.9307C246.812 74.3662 252.598 68.4803 257.964 70.0619C263.329 71.6434 264.47 77.8096 261.107 82.214Z" fill="#FFB573"/>
<path d="M255.321 461.333C256.022 409.061 262.708 284.556 262.708 284.556L188.915 290.782C188.915 290.782 203.589 419.091 212.438 472.424C221.647 527.859 249.895 657.729 249.895 657.729L279.925 655.166C279.925 655.166 268.955 501.753 255.321 461.333Z" fill="#263238"/>
<path d="M248.094 658.55L283.709 655.527L282.308 644.035L245.191 646.518L248.094 658.55Z" fill="#776CFF"/>
<path d="M231.257 63.4753C231.077 64.8968 230.156 65.9778 229.255 65.8777C228.354 65.7776 227.733 64.5364 227.934 63.095C228.134 61.6535 229.035 60.5925 229.936 60.6926C230.837 60.7927 231.457 62.0539 231.257 63.4753Z" fill="#263238"/>
<path d="M214.921 62.194C214.74 63.6354 213.819 64.6965 212.919 64.5964C212.018 64.4963 211.397 63.255 211.597 61.8336C211.797 60.4122 212.698 59.3311 213.599 59.4312C214.5 59.5313 215.121 60.6925 214.921 62.194Z" fill="#263238"/>
<path d="M219.525 63.8757C217.114 67.5805 214.219 70.9468 210.917 73.8857C213.039 76.108 217.423 75.5074 217.423 75.5074L219.525 63.8757Z" fill="#ED893E"/>
<path opacity="0.4" d="M204.59 62.5544C204.29 64.8367 206.592 66.7386 209.775 67.139C212.959 67.5394 215.902 65.7977 216.182 63.5154" fill="#776CFF"/>
<path opacity="0.4" d="M223.509 64.6765C223.069 66.9388 225.291 68.9808 228.414 69.5814C231.537 70.182 234.6 68.5804 235.021 66.3382" fill="#776CFF"/>
<path d="M229.655 70.2018C229.295 70.2218 228.934 70.2218 228.574 70.2018C227.035 70.0178 225.59 69.3682 224.43 68.34C223.924 67.9075 223.529 67.3601 223.278 66.7435C223.028 66.127 222.928 65.4593 222.989 64.7965C221.973 64.3541 220.89 64.0834 219.785 63.9957C218.675 63.7185 217.513 63.7185 216.402 63.9957C216.122 66.4381 213.079 68.1198 209.675 67.6993C208.136 67.5311 206.688 66.8873 205.531 65.8575C205.028 65.423 204.635 64.8752 204.384 64.2592C204.134 63.6432 204.033 62.9765 204.09 62.314L205.051 62.4341C205.01 62.946 205.093 63.4602 205.291 63.9338C205.49 64.4074 205.799 64.8267 206.192 65.1568C207.2 66.0445 208.459 66.5971 209.795 66.7384C212.678 67.1188 215.241 65.7774 215.501 63.7754C215.641 62.6543 217.964 62.7344 219.886 62.9746C221.807 63.2149 224.09 63.7554 223.89 64.8565C223.847 65.3686 223.929 65.8833 224.128 66.3572C224.326 66.831 224.636 67.2502 225.031 67.5792C226.052 68.455 227.306 69.0127 228.641 69.1835C229.975 69.3543 231.33 69.1306 232.538 68.5402C233.005 68.3231 233.412 67.9969 233.725 67.5892C234.039 67.1815 234.25 66.7043 234.34 66.1978V65.7174L259.045 68.9005L258.925 69.8615L235.141 66.7985C234.968 67.3557 234.684 67.872 234.305 68.316C233.926 68.7599 233.462 69.1223 232.939 69.381C231.927 69.9165 230.8 70.1982 229.655 70.2018Z" fill="#263238"/>
<path d="M237.543 57.1889C237.686 57.1893 237.825 57.1475 237.944 57.0688C238.138 56.9556 238.281 56.7706 238.341 56.5536C238.401 56.3365 238.373 56.1046 238.264 55.9076C237.644 54.7432 236.745 53.7502 235.648 53.0167C234.552 52.2832 233.291 51.8321 231.978 51.7034C231.753 51.6924 231.532 51.7701 231.364 51.9198C231.195 52.0696 231.092 52.2794 231.077 52.5042C231.066 52.724 231.141 52.9394 231.287 53.1041C231.433 53.2688 231.638 53.3697 231.858 53.3851C232.897 53.5071 233.89 53.8808 234.752 54.4739C235.614 55.067 236.317 55.8616 236.802 56.7885C236.878 56.9159 236.987 57.0204 237.118 57.0909C237.248 57.1614 237.395 57.1953 237.543 57.1889Z" fill="#263238"/>
<path d="M209.635 54.9266C209.774 54.9402 209.914 54.92 210.043 54.8677C210.172 54.8154 210.286 54.7326 210.376 54.6263C211.024 53.7786 211.861 53.0943 212.82 52.6285C213.78 52.1626 214.835 51.928 215.902 51.9437C216.012 51.9547 216.124 51.9437 216.23 51.9114C216.336 51.879 216.435 51.826 216.521 51.7552C216.606 51.6845 216.677 51.5975 216.729 51.4993C216.781 51.401 216.813 51.2935 216.823 51.1829C216.837 51.075 216.829 50.9654 216.8 50.8604C216.771 50.7555 216.722 50.6573 216.655 50.5716C216.588 50.4859 216.505 50.4144 216.41 50.3612C216.315 50.3081 216.21 50.2743 216.102 50.262C214.757 50.2268 213.423 50.5073 212.206 51.0809C210.989 51.6546 209.924 52.5055 209.095 53.5653C208.952 53.7355 208.883 53.9552 208.901 54.1765C208.92 54.3978 209.026 54.6027 209.195 54.7465C209.326 54.8404 209.477 54.9021 209.635 54.9266Z" fill="#263238"/>
<path d="M316.802 452.904C301.487 374.186 298.043 312.624 283.509 282.734L212.018 290.742C212.018 290.742 254.6 408.04 275.401 458.11C297.002 510.162 339.645 599.09 339.645 599.09H375.361C375.361 599.09 342.027 488.76 316.802 452.904Z" fill="#263238"/>
<path d="M90.1961 154.907L82.4683 150.022C81.214 149.214 79.7181 148.866 78.2359 149.037C76.7536 149.209 75.3768 149.889 74.3402 150.963L69.095 156.488C68.5301 157.085 68.0935 157.791 67.8122 158.562C67.531 159.334 67.411 160.155 67.4598 160.975C67.5086 161.795 67.7251 162.597 68.0959 163.33C68.4666 164.063 68.9839 164.712 69.6155 165.237L73.3592 168.44C76.6156 171.2 80.4144 173.246 84.5104 174.446L95.8217 177.79L103.249 169.782C105.511 161.433 90.1961 154.907 90.1961 154.907Z" fill="#FFB573"/>
<path d="M204.59 151.163C201.787 158.01 199.045 164.376 196.062 170.883C193.079 177.389 190.056 183.815 186.712 190.202C183.369 196.588 179.805 202.935 175.761 209.301C173.759 212.464 171.537 215.627 169.015 218.81C166.303 222.32 163.215 225.523 159.805 228.36C157.554 230.2 155.071 231.734 152.418 232.925C151.577 233.245 150.796 233.565 149.876 233.845L148.474 234.226C147.769 234.399 147.054 234.526 146.332 234.606C143.892 234.881 141.421 234.705 139.045 234.086C136.073 233.254 133.25 231.964 130.676 230.262C128.749 229.059 126.909 227.721 125.171 226.258C119.393 221.213 114.068 215.674 109.255 209.701C104.59 204.096 100.186 198.47 95.9617 192.724C91.7375 186.979 87.6734 181.333 83.5093 175.307L105.651 161.013C112.639 172.292 120.37 183.094 128.795 193.345C132.667 198.093 136.933 202.507 141.547 206.538C142.441 207.27 143.384 207.938 144.37 208.54C145.111 209.041 145.852 209.241 145.331 209.061C144.627 208.867 143.89 208.826 143.169 208.941C142.878 208.967 142.589 209.021 142.308 209.101H142.148C142.048 209.101 142.048 209.101 142.028 209.101C142.483 208.803 142.918 208.476 143.329 208.12C145.156 206.461 146.813 204.623 148.274 202.634C149.976 200.352 151.677 197.789 153.299 195.127C156.614 189.591 159.634 183.884 162.348 178.03C165.151 172.024 167.854 166.018 170.356 159.771C172.859 153.525 175.241 147.179 177.263 141.113L204.59 151.163Z" fill="#776CFF"/>
<g opacity="0.6">
<path d="M204.59 151.163C201.787 158.01 199.045 164.376 196.062 170.883C193.079 177.389 190.056 183.815 186.712 190.202C183.369 196.588 179.805 202.935 175.761 209.301C173.759 212.464 171.537 215.627 169.015 218.81C166.303 222.32 163.215 225.523 159.805 228.36C157.554 230.2 155.071 231.734 152.418 232.925C151.577 233.245 150.796 233.565 149.876 233.845L148.474 234.226C147.769 234.399 147.054 234.526 146.332 234.606C143.892 234.881 141.421 234.705 139.045 234.086C136.073 233.254 133.25 231.964 130.676 230.262C128.749 229.059 126.909 227.721 125.171 226.258C119.393 221.213 114.068 215.674 109.255 209.701C104.59 204.096 100.186 198.47 95.9617 192.724C91.7375 186.979 87.6734 181.333 83.5093 175.307L105.651 161.013C112.639 172.292 120.37 183.094 128.795 193.345C132.667 198.093 136.933 202.507 141.547 206.538C142.441 207.27 143.384 207.938 144.37 208.54C145.111 209.041 145.852 209.241 145.331 209.061C144.627 208.867 143.89 208.826 143.169 208.941C142.878 208.967 142.589 209.021 142.308 209.101H142.148C142.048 209.101 142.048 209.101 142.028 209.101C142.483 208.803 142.918 208.476 143.329 208.12C145.156 206.461 146.813 204.623 148.274 202.634C149.976 200.352 151.677 197.789 153.299 195.127C156.614 189.591 159.634 183.884 162.348 178.03C165.151 172.024 167.854 166.018 170.356 159.771C172.859 153.525 175.241 147.179 177.263 141.113L204.59 151.163Z" fill="white"/>
</g>
<path d="M257.003 120.432C249.495 134.446 222.769 187.839 219.525 220.792C207.693 190.762 210.276 124.336 210.276 124.336C201.844 125.158 193.572 127.18 185.711 130.342C183.178 131.383 180.983 133.105 179.368 135.317C177.753 137.529 176.782 140.145 176.562 142.875C174.258 177.245 175.344 211.76 179.806 245.917C188.114 310.582 195.822 411.143 195.822 411.143C195.822 411.143 261.988 408.38 313.039 397.609C306.812 348.18 285.511 265.337 285.311 243.155C285.071 214.606 285.731 158.79 286.632 135.487C286.783 132.197 285.752 128.961 283.725 126.365C281.699 123.769 278.81 121.984 275.581 121.333C269.457 120.198 263.208 119.895 257.003 120.432Z" fill="#776CFF"/>
<path opacity="0.7" d="M257.003 120.432C249.495 134.446 222.769 187.839 219.525 220.792C207.693 190.762 210.276 124.336 210.276 124.336C201.844 125.158 193.572 127.18 185.711 130.342C183.178 131.383 180.983 133.105 179.368 135.317C177.753 137.529 176.782 140.145 176.562 142.875C174.258 177.245 175.344 211.76 179.806 245.918C188.114 310.582 195.822 411.143 195.822 411.143C195.822 411.143 261.988 408.38 313.039 397.609C306.812 348.18 285.511 265.337 285.311 243.155C285.071 214.606 285.731 158.77 286.632 135.467C286.822 132.277 285.879 129.123 283.971 126.559C282.063 123.996 279.312 122.188 276.202 121.453C269.882 120.214 263.419 119.871 257.003 120.432Z" fill="white"/>
<path d="M241.407 400.412C229.916 337.009 220.807 243.976 220.066 232.784H221.087C221.828 243.976 230.957 336.888 242.428 400.292L241.407 400.412Z" fill="white"/>
<path d="M235.681 287.619H174.66C173.428 287.564 172.247 287.11 171.294 286.327C170.342 285.544 169.668 284.473 169.375 283.275L148.975 188.44C148.825 187.922 148.801 187.377 148.904 186.848C149.006 186.319 149.233 185.822 149.566 185.398C149.898 184.973 150.326 184.634 150.815 184.408C151.304 184.182 151.84 184.075 152.378 184.096H213.379C214.615 184.147 215.8 184.598 216.757 185.382C217.714 186.165 218.39 187.239 218.684 188.44L239.085 283.275C239.234 283.792 239.258 284.338 239.156 284.867C239.053 285.396 238.826 285.893 238.494 286.317C238.162 286.741 237.733 287.081 237.244 287.307C236.755 287.533 236.22 287.64 235.681 287.619Z" fill="white"/>
<path d="M233.78 288.42H171.718C170.463 288.362 169.261 287.899 168.29 287.102C167.32 286.305 166.633 285.215 166.332 283.995L145.572 187.559C145.423 187.031 145.401 186.475 145.508 185.936C145.615 185.398 145.848 184.892 146.188 184.461C146.528 184.03 146.964 183.685 147.463 183.454C147.961 183.224 148.506 183.114 149.055 183.135H211.117C212.372 183.193 213.574 183.655 214.544 184.453C215.515 185.25 216.202 186.34 216.502 187.559L237.243 283.995C237.396 284.523 237.421 285.078 237.317 285.617C237.213 286.156 236.982 286.662 236.644 287.094C236.305 287.526 235.869 287.872 235.371 288.102C234.874 288.333 234.328 288.442 233.78 288.42Z" fill="#776CFF"/>
<path d="M240.887 234.006L225.451 233.425C223.595 233.361 221.747 233.689 220.026 234.386L212.018 237.589C211.267 237.887 210.583 238.333 210.008 238.901C209.433 239.469 208.979 240.147 208.673 240.895C208.366 241.642 208.214 242.444 208.224 243.252C208.235 244.06 208.408 244.858 208.735 245.597L211.938 252.524C212.584 253.868 213.673 254.947 215.023 255.582C216.372 256.216 217.898 256.367 219.345 256.008L228.174 253.805C228.174 253.805 244.751 252.484 245.351 243.795L240.887 234.006Z" fill="#FFB573"/>
<path d="M283.509 129.021C287.333 135.027 290.836 140.512 294.28 146.398C297.723 152.284 301.107 158.11 304.29 164.196C307.473 170.282 310.496 176.568 313.239 183.295C314.663 186.818 315.88 190.421 316.882 194.086C318.173 198.553 318.767 203.192 318.644 207.839V208.62C318.651 208.754 318.651 208.887 318.644 209.021C318.644 209.741 318.444 210.462 318.304 211.183C318.164 211.904 317.983 212.464 317.783 213.185C317.583 213.906 317.363 214.286 317.143 214.846C316.377 216.579 315.395 218.207 314.22 219.691C312.584 221.735 310.724 223.589 308.674 225.217C305.525 227.697 302.177 229.914 298.664 231.843C292.484 235.223 286.121 238.257 279.605 240.933C273.299 243.615 267.013 246.058 260.686 248.36C254.36 250.662 248.134 252.884 241.547 255.087L233.919 229.861C239.925 228.22 246.052 226.198 252.038 224.156C258.024 222.114 264.05 219.831 269.735 217.449C275.315 215.144 280.756 212.517 286.031 209.581C288.258 208.347 290.38 206.934 292.378 205.357C292.903 204.959 293.374 204.495 293.779 203.976C293.607 204.17 293.471 204.394 293.379 204.636C293.379 204.816 293.279 204.937 293.179 205.157C293.1 205.392 293.04 205.633 292.998 205.878C292.914 206.185 292.861 206.5 292.838 206.818C292.838 206.939 292.838 206.959 292.838 206.919V206.778C292.699 204.879 292.329 203.003 291.737 201.193C290.937 198.572 289.987 195.998 288.894 193.485C286.447 187.944 283.679 182.549 280.606 177.329C277.483 171.964 274.16 166.598 270.596 161.313C267.033 156.028 263.389 150.762 259.725 145.958L283.509 129.021Z" fill="#776CFF"/>
<g opacity="0.7">
<path d="M283.509 129.021C287.333 135.027 290.836 140.512 294.28 146.398C297.723 152.284 301.107 158.11 304.29 164.196C307.473 170.282 310.496 176.568 313.239 183.295C314.663 186.818 315.88 190.421 316.882 194.086C318.173 198.553 318.767 203.192 318.644 207.839V208.62C318.651 208.754 318.651 208.887 318.644 209.021C318.644 209.741 318.444 210.462 318.304 211.183C318.164 211.904 317.983 212.464 317.783 213.185C317.583 213.906 317.363 214.286 317.143 214.846C316.377 216.579 315.395 218.207 314.22 219.691C312.584 221.735 310.724 223.589 308.674 225.217C305.525 227.697 302.177 229.914 298.664 231.843C292.484 235.223 286.121 238.257 279.605 240.933C273.299 243.615 267.013 246.058 260.686 248.36C254.36 250.662 248.134 252.884 241.547 255.087L233.919 229.861C239.925 228.22 246.052 226.198 252.038 224.156C258.024 222.114 264.05 219.831 269.735 217.449C275.315 215.144 280.756 212.517 286.031 209.581C288.258 208.347 290.38 206.934 292.378 205.357C292.903 204.959 293.374 204.495 293.779 203.976C293.607 204.17 293.471 204.394 293.379 204.636C293.379 204.816 293.279 204.937 293.179 205.157C293.1 205.392 293.04 205.633 292.998 205.878C292.914 206.185 292.861 206.5 292.838 206.818C292.838 206.939 292.838 206.959 292.838 206.919V206.778C292.699 204.879 292.329 203.003 291.737 201.193C290.937 198.572 289.987 195.998 288.894 193.485C286.447 187.944 283.679 182.549 280.606 177.329C277.483 171.964 274.16 166.598 270.596 161.313C267.033 156.028 263.389 150.762 259.725 145.958L283.509 129.021Z" fill="white"/>
</g>
<path d="M263.249 198.49C263.115 198.488 262.984 198.453 262.869 198.386C262.753 198.319 262.656 198.224 262.588 198.11C262.529 198.022 262.489 197.924 262.469 197.821C262.449 197.717 262.451 197.611 262.473 197.508C262.496 197.405 262.539 197.308 262.6 197.222C262.661 197.136 262.738 197.064 262.828 197.009L265.951 195.007C268.866 193.168 271.155 190.488 272.513 187.321C273.872 184.153 274.236 180.648 273.559 177.269L267.273 145.437C266.813 143.057 265.563 140.902 263.726 139.32C261.889 137.738 259.572 136.822 257.15 136.72C254.728 136.618 252.343 137.336 250.38 138.758C248.416 140.18 246.99 142.223 246.332 144.556L237.423 175.767C236.45 179.067 236.503 182.584 237.576 185.852C238.649 189.12 240.69 191.985 243.429 194.066L246.392 196.308C246.559 196.438 246.667 196.629 246.693 196.84C246.72 197.05 246.662 197.262 246.532 197.429C246.469 197.511 246.391 197.58 246.301 197.631C246.212 197.683 246.113 197.716 246.011 197.729C245.908 197.742 245.804 197.734 245.705 197.707C245.605 197.68 245.512 197.633 245.431 197.569L242.628 195.347C239.617 193.08 237.367 189.951 236.177 186.375C234.986 182.8 234.911 178.946 235.961 175.327L244.89 144.116C245.657 141.451 247.296 139.12 249.546 137.499C251.796 135.877 254.525 135.058 257.296 135.174C260.067 135.289 262.718 136.332 264.825 138.135C266.932 139.938 268.372 142.397 268.914 145.117L275.201 176.969C275.943 180.66 275.546 184.49 274.062 187.951C272.578 191.412 270.078 194.34 266.892 196.348L263.749 198.35C263.68 198.406 263.599 198.447 263.513 198.471C263.427 198.495 263.337 198.502 263.249 198.49Z" fill="#263238"/>
<path d="M268.054 146.098L245.571 145.157C245.466 145.152 245.363 145.126 245.268 145.081C245.173 145.036 245.087 144.972 245.017 144.894C244.946 144.816 244.891 144.725 244.856 144.626C244.821 144.526 244.805 144.421 244.811 144.316C244.831 144.107 244.928 143.913 245.084 143.773C245.239 143.632 245.442 143.554 245.651 143.555L268.114 144.496C268.219 144.501 268.322 144.527 268.417 144.572C268.513 144.617 268.598 144.681 268.669 144.759C268.739 144.837 268.794 144.928 268.829 145.027C268.865 145.127 268.88 145.232 268.875 145.337C268.872 145.441 268.849 145.544 268.806 145.639C268.763 145.734 268.701 145.82 268.625 145.891C268.548 145.962 268.458 146.016 268.36 146.052C268.262 146.088 268.158 146.103 268.054 146.098Z" fill="#263238"/>
<path d="M257.123 136.769C256.915 136.764 256.717 136.68 256.569 136.536C256.42 136.391 256.332 136.195 256.322 135.988C256.322 131.984 255.081 125.037 251.337 123.515C251.233 123.481 251.138 123.425 251.057 123.352C250.975 123.279 250.91 123.19 250.864 123.091C250.819 122.991 250.794 122.884 250.791 122.774C250.789 122.665 250.809 122.557 250.85 122.455C250.891 122.354 250.952 122.262 251.03 122.185C251.108 122.109 251.201 122.049 251.303 122.009C251.404 121.97 251.513 121.952 251.623 121.956C251.732 121.96 251.839 121.987 251.938 122.034C257.483 124.316 257.944 134.767 257.944 136.048C257.944 136.259 257.863 136.462 257.717 136.615C257.572 136.767 257.373 136.858 257.163 136.869L257.123 136.769Z" fill="#263238"/>
<path d="M188.354 163.976H188.194C187.987 163.932 187.806 163.809 187.69 163.633C187.574 163.457 187.532 163.242 187.573 163.035C190.216 149.881 201.147 129.121 210.776 122.995C210.864 122.94 210.962 122.903 211.064 122.887C211.166 122.87 211.271 122.874 211.371 122.899C211.472 122.923 211.567 122.967 211.65 123.028C211.734 123.089 211.804 123.166 211.857 123.255C211.916 123.341 211.956 123.438 211.975 123.539C211.995 123.641 211.993 123.746 211.971 123.847C211.948 123.949 211.905 124.044 211.844 124.128C211.784 124.212 211.706 124.283 211.617 124.336C202.308 130.222 191.697 150.362 189.135 163.315C189.102 163.499 189.006 163.666 188.864 163.786C188.721 163.907 188.541 163.974 188.354 163.976Z" fill="#263238"/>
<path d="M194.92 166.038C193.679 169.221 190.916 171.143 188.914 170.322C186.912 169.501 186.132 166.318 187.373 163.055C188.614 159.791 191.377 157.95 193.379 158.79C195.381 159.631 196.182 162.855 194.92 166.038Z" fill="white"/>
<path d="M247.773 197.049C247.773 198.53 246.853 199.711 245.872 199.671C244.891 199.631 244.13 198.39 244.19 196.888C244.25 195.387 245.111 194.206 246.092 194.266C247.073 194.326 247.834 195.547 247.773 197.049Z" fill="white"/>
<path d="M265.031 197.769C265.031 199.251 264.13 200.432 263.129 200.392C262.128 200.352 261.407 199.111 261.467 197.609C261.527 196.108 262.368 194.947 263.469 194.987C264.57 195.027 265.091 196.328 265.031 197.769Z" fill="white"/>
<path d="M604.53 170.002L602.528 169.882C602.861 165.619 602.304 161.334 600.894 157.298C599.483 153.263 597.249 149.564 594.333 146.437C591.417 143.311 587.883 140.824 583.956 139.136C580.028 137.447 575.792 136.593 571.517 136.628V134.626C576.066 134.588 580.574 135.495 584.754 137.291C588.934 139.086 592.696 141.731 595.8 145.057C598.904 148.383 601.283 152.318 602.785 156.612C604.288 160.906 604.882 165.466 604.53 170.002Z" fill="#776CFF"/>
<path d="M605.586 178.396L604.425 194.972L606.427 195.113L607.588 178.536L605.586 178.396Z" fill="#776CFF"/>
<path d="M571.517 141.633H433.379C425.835 141.757 418.607 144.683 413.101 149.841C407.595 155 404.204 162.022 403.589 169.541L402.328 188.14C402.041 191.719 402.503 195.318 403.685 198.708C404.866 202.098 406.741 205.205 409.189 207.831C411.638 210.456 414.606 212.543 417.906 213.958C421.206 215.372 424.764 216.084 428.354 216.048H566.492L593.279 232.564L597.523 169.541C597.812 165.964 597.353 162.365 596.174 158.975C594.995 155.585 593.122 152.477 590.675 149.851C588.228 147.226 585.261 145.138 581.962 143.724C578.663 142.309 575.106 141.597 571.517 141.633Z" fill="#776CFF"/>
<path d="M564.51 168.28H436.562V172.925H564.51V168.28Z" fill="white"/>
<path d="M563.389 184.757H468.394V189.401H563.389V184.757Z" fill="white"/>
<path d="M363.709 241.133H504.89C508.561 241.093 512.199 241.819 515.574 243.265C518.948 244.71 521.984 246.843 524.487 249.527C526.991 252.212 528.907 255.389 530.114 258.856C531.321 262.322 531.792 266.003 531.497 269.661L530.216 288.68C529.581 296.365 526.114 303.54 520.487 308.811C514.86 314.083 507.475 317.076 499.765 317.209H358.564L328.895 334.126L333.259 269.661C333.889 261.975 337.355 254.798 342.983 249.525C348.611 244.252 355.998 241.261 363.709 241.133Z" fill="white"/>
<path opacity="0.15" d="M363.709 241.133H504.89C508.561 241.093 512.199 241.819 515.574 243.265C518.948 244.71 521.984 246.843 524.487 249.527C526.991 252.212 528.907 255.389 530.114 258.856C531.321 262.322 531.792 266.003 531.497 269.661L530.216 288.68C529.581 296.365 526.114 303.54 520.487 308.811C514.86 314.083 507.475 317.076 499.765 317.209H358.564L328.895 334.126L333.259 269.661C333.889 261.975 337.355 254.798 342.983 249.525C348.611 244.252 355.998 241.261 363.709 241.133Z" fill="#776CFF"/>
<path opacity="0.5" d="M497.723 268.38H366.872V273.145H497.723V268.38Z" fill="#776CFF"/>
<path opacity="0.5" d="M417.443 285.217H365.731V289.982H417.443V285.217Z" fill="#776CFF"/>
<path opacity="0.5" d="M463.149 285.217H430.116V289.982H463.149V285.217Z" fill="#776CFF"/>
<path d="M470.999 469.638C470.344 469.638 469.794 469.416 469.352 468.973C468.909 468.53 468.688 467.981 468.688 467.326V461.159C468.688 460.504 468.909 459.955 469.353 459.511C469.796 459.068 470.346 458.847 471.001 458.847C471.657 458.847 472.206 459.068 472.648 459.511C473.091 459.955 473.313 460.504 473.313 461.159V467.326C473.313 467.981 473.091 468.53 472.647 468.973C472.204 469.416 471.655 469.638 470.999 469.638ZM454.753 472.033L449.868 467.177C449.409 466.714 449.18 466.163 449.18 465.525C449.18 464.887 449.409 464.339 449.868 463.88C450.326 463.422 450.866 463.193 451.487 463.193C452.108 463.193 452.651 463.422 453.117 463.88L458.021 468.784C458.479 469.243 458.713 469.784 458.723 470.409C458.733 471.034 458.504 471.575 458.035 472.033C457.567 472.492 457.017 472.721 456.387 472.721C455.757 472.721 455.212 472.492 454.753 472.033ZM456.057 510.61H462.166C462.921 510.61 463.555 510.355 464.066 509.843C464.578 509.332 464.833 508.699 464.833 507.943C464.833 507.187 464.578 506.554 464.066 506.042C463.555 505.53 462.921 505.274 462.166 505.274H456.057C455.302 505.274 454.668 505.53 454.157 506.041C453.645 506.552 453.39 507.186 453.39 507.941C453.39 508.697 453.645 509.331 454.157 509.843C454.668 510.355 455.302 510.61 456.057 510.61ZM479.835 510.61H485.943C486.699 510.61 487.332 510.355 487.844 509.843C488.355 509.332 488.611 508.699 488.611 507.943C488.611 507.187 488.355 506.554 487.844 506.042C487.332 505.53 486.699 505.274 485.943 505.274H479.835C479.079 505.274 478.445 505.53 477.934 506.041C477.422 506.552 477.167 507.186 477.167 507.941C477.167 508.697 477.422 509.331 477.934 509.843C478.445 510.355 479.079 510.61 479.835 510.61ZM484.276 488.351C484.834 488.909 485.484 489.187 486.227 489.187C486.97 489.187 487.62 488.909 488.177 488.351L495.145 481.431C495.509 481.068 495.696 480.642 495.705 480.154C495.715 479.666 495.528 479.23 495.145 478.847C494.762 478.463 494.331 478.279 493.852 478.295C493.374 478.311 492.943 478.495 492.56 478.847L486.227 485.084L484.305 483.163C483.942 482.8 483.516 482.62 483.028 482.626C482.54 482.632 482.104 482.827 481.721 483.21C481.337 483.594 481.145 484.025 481.145 484.503C481.145 484.982 481.337 485.412 481.721 485.796L484.276 488.351ZM488.432 497.595C484.582 497.595 481.307 496.245 478.607 493.546C475.907 490.846 474.557 487.571 474.557 483.721C474.557 479.87 475.907 476.595 478.607 473.895C481.307 471.195 484.582 469.846 488.432 469.846C492.283 469.846 495.558 471.195 498.258 473.895C500.957 476.595 502.307 479.87 502.307 483.721C502.307 487.571 500.957 490.846 498.258 493.546C495.558 496.245 492.283 497.595 488.432 497.595ZM448.049 525.375C447.143 525.375 446.373 525.058 445.741 524.424C445.108 523.79 444.792 523.02 444.792 522.114V500.365C444.792 500.044 444.813 499.724 444.854 499.404C444.896 499.084 444.968 498.779 445.071 498.491L451.089 481.437C451.318 480.73 451.74 480.168 452.352 479.751C452.965 479.334 453.647 479.125 454.398 479.125H463.173V476.308C463.173 475.574 463.415 474.95 463.898 474.438C464.381 473.926 464.979 473.67 465.693 473.67H468.624C469.17 473.67 469.571 473.881 469.825 474.304C470.078 474.727 470.075 475.178 469.814 475.656C469.355 476.641 468.986 477.666 468.705 478.73C468.424 479.795 468.246 480.891 468.172 482.019C468.124 482.491 467.934 482.893 467.602 483.224C467.27 483.555 466.867 483.721 466.393 483.721H455.18L450.425 496.676H470.39C471.068 496.676 471.713 496.816 472.324 497.097C472.936 497.378 473.479 497.762 473.953 498.248C475.85 500.185 478.048 501.687 480.547 502.754C483.045 503.821 485.673 504.355 488.432 504.355C489.366 504.355 490.297 504.294 491.225 504.171C492.154 504.049 493.066 503.849 493.959 503.572C494.777 503.355 495.523 503.474 496.197 503.931C496.871 504.388 497.208 505.025 497.208 505.843V522.114C497.208 523.02 496.891 523.79 496.256 524.424C495.621 525.058 494.85 525.375 493.944 525.375C493.037 525.375 492.267 525.058 491.635 524.424C491.002 523.79 490.686 523.02 490.686 522.114V519.208H451.314V522.114C451.314 523.02 450.996 523.79 450.362 524.424C449.727 525.058 448.956 525.375 448.049 525.375Z" fill="#776CFF"/>
</svg>
